<svg xmlns="http://www.w3.org/2000/svg" width="512" height="512" viewBox="0 0 64 64" fill="none">
  <circle cx="32" cy="32" r="29.5" stroke="#c0564a" stroke-width="2.4"/>
  <g stroke="#cfe4d8" stroke-width="0.7" opacity="0.35">
    <circle cx="32" cy="32" r="21"/>
    <ellipse cx="32" cy="32" rx="10.5" ry="21"/>
    <line x1="32" y1="11" x2="32" y2="53"/>
    <line x1="11" y1="32" x2="53" y2="32"/>
    <path d="M13.8 21.5 Q32 25.5 50.2 21.5 M13.8 42.5 Q32 38.5 50.2 42.5"/>
  </g>
  <line x1="32.00" y1="8.80" x2="32.00" y2="5.00" stroke="#c68a3a" stroke-width="1.6" stroke-linecap="round"/><line x1="41.41" y1="9.27" x2="42.33" y2="7.06" stroke="#c68a3a" stroke-width="0.9" stroke-linecap="round"/><line x1="49.39" y1="14.61" x2="51.09" y2="12.91" stroke="#c68a3a" stroke-width="0.9" stroke-linecap="round"/><line x1="54.73" y1="22.59" x2="56.94" y2="21.67" stroke="#c68a3a" stroke-width="0.9" stroke-linecap="round"/><line x1="55.20" y1="32.00" x2="59.00" y2="32.00" stroke="#c68a3a" stroke-width="1.6" stroke-linecap="round"/><line x1="54.73" y1="41.41" x2="56.94" y2="42.33" stroke="#c68a3a" stroke-width="0.9" stroke-linecap="round"/><line x1="49.39" y1="49.39" x2="51.09" y2="51.09" stroke="#c68a3a" stroke-width="0.9" stroke-linecap="round"/><line x1="41.41" y1="54.73" x2="42.33" y2="56.94" stroke="#c68a3a" stroke-width="0.9" stroke-linecap="round"/><line x1="32.00" y1="55.20" x2="32.00" y2="59.00" stroke="#c68a3a" stroke-width="1.6" stroke-linecap="round"/><line x1="22.59" y1="54.73" x2="21.67" y2="56.94" stroke="#c68a3a" stroke-width="0.9" stroke-linecap="round"/><line x1="14.61" y1="49.39" x2="12.91" y2="51.09" stroke="#c68a3a" stroke-width="0.9" stroke-linecap="round"/><line x1="9.27" y1="41.41" x2="7.06" y2="42.33" stroke="#c68a3a" stroke-width="0.9" stroke-linecap="round"/><line x1="8.80" y1="32.00" x2="5.00" y2="32.00" stroke="#c68a3a" stroke-width="1.6" stroke-linecap="round"/><line x1="9.27" y1="22.59" x2="7.06" y2="21.67" stroke="#c68a3a" stroke-width="0.9" stroke-linecap="round"/><line x1="14.61" y1="14.61" x2="12.91" y2="12.91" stroke="#c68a3a" stroke-width="0.9" stroke-linecap="round"/><line x1="22.59" y1="9.27" x2="21.67" y2="7.06" stroke="#c68a3a" stroke-width="0.9" stroke-linecap="round"/>
  <polygon points="32,6.5 37.2,32 26.8,32" fill="#c0564a"/>
  <polygon points="32,6.5 32,32 26.8,32" fill="#f6f0e2" opacity="0.42"/>
  <polygon points="26.8,32 37.2,32 32,57.5" fill="#f6f0e2"/>
  <polygon points="32,32 37.2,32 32,57.5" fill="#000" opacity="0.12"/>
  <circle cx="32" cy="32" r="3" fill="#0e2620" stroke="#c0564a" stroke-width="1.5"/>
</svg>